<svg width="512" height="512" viewBox="0 0 512 512" style="color:#f3890b" xmlns="http://www.w3.org/2000/svg" class="h-full w-full"><rect width="512" height="512" x="0" y="0" rx="30" fill="transparent" stroke="transparent" stroke-width="0" stroke-opacity="100%" paint-order="stroke"></rect><svg width="256px" height="256px" viewBox="0 0 24 24" fill="#f3890b" x="128" y="128" role="img" style="display:inline-block;vertical-align:middle" xmlns="http://www.w3.org/2000/svg"><g fill="#f3890b"><path fill="currentColor" fill-rule="evenodd" d="M12 1C5.925 1 1 5.925 1 12s4.925 11 11 11s11-4.925 11-11S18.075 1 12 1ZM8.707 9.793a1 1 0 0 0-1.414 1.414l4 4a1 1 0 0 0 1.414 0l4-4a1 1 0 0 0-1.414-1.414L12 13.086L8.707 9.793Z" clip-rule="evenodd"/></g></svg></svg>