<svg width="512" height="512" viewBox="0 0 512 512" style="color:#1C2033" xmlns="http://www.w3.org/2000/svg" class="h-full w-full"><rect width="512" height="512" x="0" y="0" rx="20" fill="transparent" stroke="transparent" stroke-width="0" stroke-opacity="100%" paint-order="stroke"></rect><svg width="254px" height="254px" viewBox="0 0 24 24" fill="#1C2033" x="129" y="129" role="img" style="display:inline-block;vertical-align:middle" xmlns="http://www.w3.org/2000/svg"><g fill="#1C2033"><path d="M6 22h12a2 2 0 0 0 2-2V4a2 2 0 0 0-2-2H6a2 2 0 0 0-2 2v16a2 2 0 0 0 2 2zm3-3H7v-2h2v2zm0-4H7v-2h2v2zm0-4H7V9h2v2zm4 8h-2v-2h2v2zm0-4h-2v-2h2v2zm0-4h-2V9h2v2zm4 8h-2v-6h2v6zm0-8h-2V9h2v2zM6 4h12v3H6V4z" fill="currentColor"/></g></svg></svg>