<svg width="512" height="512" viewBox="0 0 512 512" style="color:currentColor" xmlns="http://www.w3.org/2000/svg" class="h-full w-full"><rect width="512" height="512" x="0" y="0" rx="30" fill="transparent" stroke="transparent" stroke-width="0" stroke-opacity="100%" paint-order="stroke"></rect><svg width="256px" height="256px" viewBox="0 0 1024 1024" fill="currentColor" x="128" y="128" role="img" style="display:inline-block;vertical-align:middle" xmlns="http://www.w3.org/2000/svg"><g fill="currentColor"><path fill="currentColor" d="M512 928c23.936 0 117.504-68.352 192.064-153.152C803.456 661.888 864 535.808 864 416c0-189.632-155.84-320-352-320S160 226.368 160 416c0 120.32 60.544 246.4 159.936 359.232C394.432 859.84 488 928 512 928zm0-435.2a64 64 0 1 0 0-128a64 64 0 0 0 0 128zm0 140.8a204.8 204.8 0 1 1 0-409.6a204.8 204.8 0 0 1 0 409.6z"/></g></svg></svg>